# xmcd
#
# Track frame offsets:
#	183
#	16428
#	28588
#	38983
#	48390
#	63003
#	78288
#	95840
#	119260
#	134848
#	147628
#	161025
#	175625
#	187413
#	198745
#	210068
#
# Disc length: 2948
#
# Revision: 1
# Processed by: cddbd v1.5.1PL0 Copyright (c) Steve Scherf et al.
# Submitted via: audiograbber 1.80.04
# Normalized: r0:DSETVAR1
#
DISCID=ea0b8210
DTITLE=Various Artist - 16 Succès Volume 3
DYEAR=1900
DGENRE=Pop
TTITLE0=Pascal Danel - La plage aux romantiques
TTITLE1=Maria Candido - Le chant de Mallory
TTITLE2=Marie Laforêt - Ivan, Boris et moi
TTITLE3=Michel Delpech - Pour une blonde
TTITLE4=Gérard Palaprat - Pour la fin du monde
TTITLE5=Gilles Dreu - Pourquoi le bon Dieu
TTITLE6=Maxime le Forestier - Madame
TTITLE7=Nina Simone - Ne me quitte pas
TTITLE8=Nicole Croisille - I'll never leave you
TTITLE9=Michel fugain - Quand l'oiseau chante
TTITLE10=Patricia Carli - Demain, tu te maries
TTITLE11=Jean Sablon - Clopin clopant
TTITLE12=Les Surfs - Scandale dans la famille
TTITLE13=Brigitte Bardot - Harley Davidson
TTITLE14=Hugues Aufray - Des femmes et du tabac
TTITLE15=Rika Zaraï - Le temps des vacances
EXTD=
EXTT0=
EXTT1=
EXTT2=
EXTT3=
EXTT4=
EXTT5=
EXTT6=
EXTT7=
EXTT8=
EXTT9=
EXTT10=
EXTT11=
EXTT12=
EXTT13=
EXTT14=
EXTT15=
PLAYORDER=
